<svg xmlns="http://www.w3.org/2000/svg" xmlns:xlink="http://www.w3.org/1999/xlink" version="1.1" x="0px" y="0px" viewBox="0 0 68 85" enable-background="new 0 0 68 68" xml:space="preserve"><g><path d="M66.9,22.5C66.9,22.5,66.9,22.5,66.9,22.5c-0.1-0.1-0.1-0.2-0.2-0.3c-5.6-6-16.1-8.4-24.2-9.3c-0.9-2.9-3.8-5.1-7.3-5.5   C36,6.3,37,5.6,37,5.6c0.4-0.3,0.5-1,0.2-1.4s-1-0.5-1.4-0.2c-0.1,0.1-1.8,1.4-2.8,3.4C28.5,7.8,25,11,25,14.9c0,0.5,0.1,1,0.2,1.5   L1.4,35.9c0,0,0,0.1-0.1,0.1c0,0-0.1,0.1-0.1,0.1c0,0-0.1,0.1-0.1,0.2c0,0,0,0.1-0.1,0.1c0,0.1,0,0.1,0,0.2c0,0,0,0.1,0,0.1v24.5   c0,1.7,1.3,3,3,3c0.1,0,0.3,0,0.4,0l60-9c1.5-0.2,2.6-1.5,2.6-3V22.9c0,0,0,0,0,0C67,22.7,67,22.6,66.9,22.5z M65,24.1v10.1   c-0.6,0-1.1,0-1.8,0.1c-2.3,0.3-3.5,1.1-4.5,1.8c-1,0.6-1.8,1.2-3.7,1.5c-1.9,0.3-2.8,0-3.9-0.3c-1.2-0.3-2.5-0.7-4.8-0.4   c-4.9,0.7-6,4.7-12.1,2.9c-3.3-1-6.3-0.6-9.3,1.4c-6.6,4.4-9.4-2.4-16.9,2.5c-1.3,0.8-2.6,1.6-5.1,1.6v-7.8l9.8-2.1L65,24.1z    M3,47.3c5.7,0,5.6-2.7,9.9-3.4c3.8-0.6,4.4,1.4,8.7,0.7c2.3-0.3,3.5-1.1,4.5-1.8c5.4-3.6,7.1,0.1,12.4-0.7   c4.4-0.7,4.3-2.7,8.1-3.2c1.9-0.3,2.8,0,3.9,0.3c1.2,0.3,2.5,0.7,4.8,0.4c2.3-0.3,3.5-1.1,4.5-1.8c1-0.6,1.8-1.2,3.7-1.5   c0.5-0.1,1-0.1,1.5-0.1v8c-6.6,0-7.2,5-13.8,3c-9-2.7-9,4.9-16.9,2.5c-6.8-2-8.9,2.2-12.9,2.8c-1.9,0.3-2.8,0-3.9-0.3   c-7.6-2.3-8.7,3-14.4,2.9V47.3z M32.3,9.5c0,0.2-0.1,0.5-0.1,0.7c0,0.6,0.4,1,1,1s1-0.4,1-1c0-0.3,0-0.6,0.1-0.9   c3.3,0.1,6,2.2,6.5,4.8c0,0.3,0.1,0.5,0.1,0.8c0,1.9-1.2,3.5-3,4.5c-1.2,0.6-2.6,1-4.1,1c-0.3,0-0.6,0-0.8,0   c-2.4-0.3-4.4-1.5-5.3-3.2c-0.1-0.2-0.2-0.4-0.3-0.7c-0.2-0.5-0.3-1-0.3-1.6C27,12.3,29.3,10.1,32.3,9.5z M26,18.3   c1.3,2.3,3.8,3.7,6.8,4c0.4,0,0.8,0.1,1.2,0.1c1.8,0,3.5-0.5,4.9-1.2c1-0.5,1.9-1.2,2.5-2c1-1.2,1.5-2.6,1.5-4.2   c7,0.8,15.7,2.8,21.1,7.3L12.5,33.4l-6.7,1.4L26,18.3z M4.1,62.2c-0.6,0.1-1.1-0.4-1.1-1v-3.9c0,0,0,0,0,0c6.5,0,7.2-5,13.8-3   c1.2,0.3,2.5,0.7,4.8,0.4c4.4-0.7,4.3-2.7,8.1-3.2c3.9-0.6,4.3,1.4,8.7,0.7c4.4-0.7,4.3-2.7,8.1-3.2c3.8-0.6,4.4,1.4,8.7,0.7   c4.3-0.6,4.4-2.7,8.1-3.2c0.5-0.1,1-0.1,1.5-0.1v6C65,53.9,66.3,52.6,4.1,62.2z"/></g></svg>